<?xml version="1.0" encoding="utf-8"?>
<!-- Generator: Adobe Illustrator 23.0.6, SVG Export Plug-In . SVG Version: 6.00 Build 0)  -->
<svg version="1.1" id="Layer_1" xmlns="http://www.w3.org/2000/svg" xmlns:xlink="http://www.w3.org/1999/xlink" x="0px" y="0px"
	 viewBox="0 0 171 170.1" style="enable-background:new 0 0 171 170.1;" xml:space="preserve">
<style type="text/css">
	.st0{fill:#003037;}
	.st1{fill:url(#SVGID_1_);}
	.st2{fill:#375D63;}
	.st3{fill:#7C8E95;}
	.st4{fill:#C5D5DC;}
	.st5{fill:url(#SVGID_2_);}
	.st6{fill:url(#SVGID_3_);}
	.st7{fill:url(#SVGID_4_);}
	.st8{fill:url(#SVGID_5_);}
	.st9{fill:url(#SVGID_6_);}
	.st10{fill:#FF8661;}
</style>
<g>
	<path class="st0" d="M81-0.2C35.9,1.9,0,39.1,0,84.7s35.9,82.8,81,85v0.1h90V-0.3L81-0.2L81-0.2z"/>
</g>
<g>
	<g>
		<linearGradient id="SVGID_1_" gradientUnits="userSpaceOnUse" x1="98.3619" y1="132.5842" x2="127.6398" y2="119.273">
			<stop  offset="0.1907" style="stop-color:#003037"/>
			<stop  offset="0.589" style="stop-color:#1F444B"/>
		</linearGradient>
		<path class="st1" d="M111.8,108.3c-0.5,0.8-1.1,1.6-1.6,2.5c-3.3,5.1-8,4.9-15.2,12.3c0.5,5.9,5.2,14.4,9.6,19.1
			c8.2,0.3,15.3-1.4,21.2-4C129.5,127.7,125.5,103.3,111.8,108.3z"/>
		<path class="st2" d="M137.2,120.8c-1.4-1.7-1.6-3.8-2.1-5.9c-1.8-6.8-3.3-12.5-2.4-19.7c0.2-1.8,0.4-3.7,0.6-5.5
			c-1.7,0-5.1-1.9-14,8.7c-2.1,2.5-4.6,5.8-7.4,10c13.7-5,17.7,19.4,14,29.9c4.3-2,8.1-4.5,11.3-7.1c2.6-2.1,4.8-4.4,6.6-6.5
			C141.3,123.8,138.9,122.9,137.2,120.8z"/>
		<path class="st3" d="M95,123.2c-2,2-4.1,4.6-6.5,8c0,0,0,0,0,0c0,2.5,0.4,5.8,2.1,7.9c0.3,0.4,0.7,0.8,1.1,1.1
			c4.6,1.2,8.9,1.9,13,2C100.1,137.6,95.4,129,95,123.2z"/>
		<path class="st3" d="M141.9,118.7c-1.8-0.6-3.2-1-4-1.9c-0.9-0.9-1.3-2.2-1.4-4.7c0-0.2,0-0.7,0-1.4c0.2-4.6,1.2-18-0.5-23.2
			c-0.1,0.2-0.3,0.3-0.4,0.5c-0.4,0.5-1,1-1.6,1.4c-0.2,0.2-0.5,0.2-0.7,0.2c-0.2,1.9-0.3,3.8-0.6,5.5c-0.9,7.3,0.6,12.9,2.4,19.7
			c0.6,2.1,0.7,4.2,2.1,5.9c1.7,2.1,4.1,3,6.5,3.8c0.7-0.8,1.4-1.7,2-2.5c0.3-0.4,0.5-0.7,0.8-1C144.7,119.9,142.8,119,141.9,118.7z
			"/>
		<path class="st4" d="M133.9,85.5c0,0.1,0,0.2-0.1,0.3c0.2-0.1,0.5-0.2,0.6-0.2C134.3,85.5,134.1,85.4,133.9,85.5z"/>
		<g>
			<linearGradient id="SVGID_2_" gradientUnits="userSpaceOnUse" x1="138.3353" y1="60.3538" x2="137.9128" y2="62.1073">
				<stop  offset="8.157809e-02" style="stop-color:#E2EAED"/>
				<stop  offset="1" style="stop-color:#C5D5DC"/>
			</linearGradient>
			<path class="st5" d="M138.2,62.3c-0.9,0-1.5-0.7-1.5-1.5c0-0.9,0.7-1.5,1.5-1.5c0.9,0,1.5,0.7,1.5,1.5c0,0,0,0,0,0
				c0,0,0,0.1,0,0.1C139.7,61.7,139.1,62.3,138.2,62.3z"/>
		</g>
		<g>
			<linearGradient id="SVGID_3_" gradientUnits="userSpaceOnUse" x1="83.7927" y1="59.2088" x2="11.9011" y2="43.4699">
				<stop  offset="0.4527" style="stop-color:#7D8F96"/>
				<stop  offset="0.4611" style="stop-color:#7E9097"/>
				<stop  offset="0.6518" style="stop-color:#94A5AC"/>
				<stop  offset="0.8346" style="stop-color:#A1B2B9"/>
				<stop  offset="1" style="stop-color:#A6B6BD"/>
			</linearGradient>
			<path class="st6" d="M73.5,96.9c0.1-0.1,0.3-0.1,0.4-0.2c-29.4,0.6-26.8-16.7-25-25.5c3.4-16.5,41.6-31.2,51.9-34.2
				c14.1-4,47.1-9.5,52.4,9.6c-0.7-6-3-15.1-17.4-22.4c-17.6-4.4-41.3-1.9-53.5,0.5c-16.6,3.4-40.5,12.3-53,27.9l0,0
				C4.1,87.2,55.6,107.2,73.5,96.9z"/>
			<linearGradient id="SVGID_4_" gradientUnits="userSpaceOnUse" x1="149.5652" y1="24.9436" x2="144.424" y2="46.2825">
				<stop  offset="8.157809e-02" style="stop-color:#E2EAED"/>
				<stop  offset="1" style="stop-color:#C5D5DC"/>
			</linearGradient>
			<path class="st7" d="M153,46.4c0.5,1.9,0.8,4.1,0.7,6.5c-0.4,14.3-3.6,9.9-9.6,8.2c-0.3-0.2-0.6-0.5-0.9-0.9
				c-0.5-0.5-1.3-1.8-2.7-2.2c-1.8-0.2-2.8,0.1-3.6,0.6c-0.8,0.4-1.1,1.1-1.2,1.8c-0.1,0.7,0.2,1.4,0.8,2.1c0.7,0.6,2.1,1.4,3.4,1.3
				c1.2-0.1,1.8-1.8,2.9-1.6c2.7,1.9,4.9,5,8.5,3.9c6.8-2,7.8-20.4,6.1-25c-3.6-9.3-12.4-14.6-23.1-17.2
				C148.8,31.2,152.4,40.4,153,46.4z"/>
			<linearGradient id="SVGID_5_" gradientUnits="userSpaceOnUse" x1="92.4381" y1="84.3029" x2="80.7125" y2="128.2592">
				<stop  offset="8.157809e-02" style="stop-color:#E2EAED"/>
				<stop  offset="1" style="stop-color:#C5D5DC"/>
			</linearGradient>
			<path class="st8" d="M151.2,113.3c-0.3,0.8-1.8,3.9-4.7,7.8c-0.3,0.3-0.5,0.7-0.8,1c-0.6,0.8-1.3,1.6-2,2.5
				c-1.8,2.1-4.1,4.4-6.6,6.5c-3.2,2.7-6.9,5.2-11.3,7.1c-6,2.7-13,4.4-21.2,4c-4-0.2-8.4-0.8-13-2c-0.4-0.3-0.8-0.7-1.1-1.1
				c-1.7-2.2-2.1-5.5-2.1-7.9c0,0,0,0,0,0c2.4-3.4,4.5-6,6.5-8c7.2-7.4,11.9-7.2,15.2-12.3c0.6-0.9,1.1-1.7,1.6-2.5
				c2.8-4.2,5.3-7.4,7.4-10c8.9-10.6,12.3-8.8,14-8.7c0.3,0,0.5,0,0.7-0.2c0.6-0.5,1.1-1,1.6-1.4c0.1-0.2,0.3-0.3,0.4-0.5
				c1.7-2.3,1.6-4.8,0.7-7.7c-5.3-3.1-6.6-4.7-16.1-4.4c-16.2,0.5-35.7,16.9-46.7,21.2c-0.1,0.1-0.3,0.1-0.4,0.2
				c-16,5.9-60.2-3.4-44.1-44.2l0,0c-23.9,22.1-16.7,79.4,52.4,81.9c-4,8.5,6,11.3,11.1,13c5.1,1.7,21.3,6.1,38.7-0.7
				c17.5-6.8,16.9,3,20,1.7c3.1-1.3,1.7-2.6,2.2-5.1c0.5-2.5,1.6-28.3,0.3-29.4C152.6,112.8,151.5,112.5,151.2,113.3z"/>
			<linearGradient id="SVGID_6_" gradientUnits="userSpaceOnUse" x1="124.7026" y1="83.3908" x2="124.2801" y2="85.1444">
				<stop  offset="8.157809e-02" style="stop-color:#E2EAED"/>
				<stop  offset="1" style="stop-color:#C5D5DC"/>
			</linearGradient>
			<path class="st9" d="M124.6,82.2c0.9,0,1.5,0.7,1.5,1.5s-0.7,1.5-1.5,1.5s-1.5-0.7-1.5-1.5S123.8,82.2,124.6,82.2z"/>
		</g>
	</g>
	<circle class="st10" cx="138.2" cy="60.7" r="2.9"/>
	<circle class="st10" cx="124.7" cy="83.8" r="2.9"/>
</g>
</svg>
