<?xml version="1.0" encoding="utf-8"?>
<!-- Generator: Adobe Illustrator 23.0.6, SVG Export Plug-In . SVG Version: 6.00 Build 0)  -->
<svg version="1.1" id="Layer_1" xmlns="http://www.w3.org/2000/svg" xmlns:xlink="http://www.w3.org/1999/xlink" x="0px" y="0px"
	 viewBox="0 0 176.1 216.9" style="enable-background:new 0 0 176.1 216.9;" xml:space="preserve">
<style type="text/css">
	.st0{fill:#FF8661;}
	.st1{fill:#003037;}
	.st2{fill:#7C8E95;}
	.st3{fill:url(#SVGID_1_);}
	.st4{fill:url(#SVGID_2_);}
	.st5{fill:#375D63;}
	.st6{fill:#C5D5DC;}
	.st7{fill:url(#SVGID_3_);}
	.st8{fill:url(#SVGID_4_);}
	.st9{fill:url(#SVGID_5_);}
	.st10{fill:url(#SVGID_6_);}
</style>
<g>
	<circle class="st0" cx="169.6" cy="5.8" r="2.9"/>
	<g>
		<path class="st1" d="M39.7,22v2.9H34c0.7,1,1.2,2.1,1.6,3.2c0.4,1.2,0.6,2.4,0.6,3.5c0,1.8-0.4,3.5-1.2,5
			c-0.8,1.5-1.9,2.8-3.4,3.9s-3.2,1.9-5.2,2.5c-2,0.6-4.2,0.9-6.6,0.9c-0.9,0-1.8-0.1-2.7-0.2c-0.9-0.2-1.7-0.3-2.4-0.5
			c-0.7,0.5-1.2,1.2-1.7,1.9c-0.5,0.7-0.7,1.4-0.7,2.2c0,0.7,0.4,1.3,1.2,1.7c0.8,0.4,1.8,0.7,3.2,0.7l13,0.5
			c2.1,0.1,3.8,0.4,5.2,0.7c1.4,0.4,2.5,0.9,3.3,1.6c0.8,0.7,1.4,1.5,1.7,2.4c0.3,0.9,0.5,2,0.5,3.1c0,2-0.5,3.9-1.4,5.5
			c-0.9,1.7-2.3,3.1-4.1,4.2c-1.8,1.2-4,2.1-6.5,2.7c-2.6,0.6-5.5,0.9-8.7,0.9c-5.8,0-10.1-0.7-13-2c-2.9-1.3-4.3-3-4.3-5.2
			c0-1,0.2-1.9,0.7-2.8c0.5-0.9,1.1-1.8,1.8-2.6c0.7-0.8,1.6-1.6,2.5-2.3c0.9-0.7,1.8-1.5,2.7-2.1c-1.3-0.4-2.4-1-3.3-1.7
			C6.3,51.9,5.8,51,5.8,50c0-0.7,0.2-1.5,0.6-2.2c0.4-0.8,0.9-1.5,1.5-2.2c0.6-0.7,1.4-1.3,2.3-1.9c0.9-0.6,1.8-1,2.8-1.4
			c-2.4-1-4.2-2.4-5.6-4.2c-1.3-1.8-2-3.8-2-6.2c0-1.7,0.4-3.4,1.2-4.9c0.8-1.5,1.9-2.9,3.3-4c1.4-1.1,3-2,4.9-2.7
			c1.9-0.7,3.9-1,6.1-1c1,0,2,0.1,3.1,0.2c1,0.1,2,0.3,2.9,0.6c0.9,0.2,1.7,0.5,2.3,0.8c0.7,0.3,1.2,0.6,1.6,1H39.7z M12.5,54.8
			c-1,0.8-1.8,1.7-2.4,2.8c-0.6,1.1-0.8,2.2-0.8,3.1c0,0.8,0.3,1.5,0.8,2.3c0.6,0.7,1.4,1.3,2.5,1.9c1.1,0.6,2.5,1,4.1,1.3
			c1.7,0.3,3.6,0.5,5.8,0.5c2.3,0,4.4-0.2,6.3-0.6s3.4-0.9,4.7-1.5c1.3-0.6,2.3-1.3,2.9-2c0.7-0.8,1-1.5,1-2.3
			c0-1.6-0.8-2.7-2.3-3.4c-1.6-0.7-3.7-1.1-6.4-1.1c-1.7,0-3.4,0-5.1-0.1c-1.7-0.1-3.3-0.2-4.8-0.3c-1.5-0.1-2.8-0.2-3.9-0.3
			C13.8,55,13,54.9,12.5,54.8z M21.2,42c1,0,1.9-0.2,2.9-0.7c0.9-0.4,1.7-1.1,2.4-1.8c0.7-0.8,1.2-1.7,1.6-2.7
			c0.4-1,0.6-2.2,0.6-3.4c0-1.7-0.2-3.3-0.7-4.8c-0.5-1.5-1.1-2.7-1.9-3.8c-0.8-1.1-1.7-1.9-2.8-2.6c-1.1-0.6-2.2-0.9-3.4-0.9
			c-1.2,0-2.2,0.2-3.1,0.7c-0.9,0.5-1.6,1.2-2.1,2c-0.6,0.8-1,1.8-1.2,3c-0.3,1.2-0.4,2.4-0.4,3.7c0,1.6,0.2,3.1,0.6,4.4
			c0.4,1.4,0.9,2.6,1.6,3.6c0.7,1,1.6,1.8,2.6,2.4C18.9,41.7,20,42,21.2,42z"/>
		<path class="st1" d="M59.5,51.9c-2.4,0-4.6-0.4-6.6-1.2c-2-0.8-3.8-2-5.2-3.4c-1.5-1.4-2.6-3.1-3.4-5.1c-0.8-1.9-1.2-4-1.2-6.2
			c0-2.3,0.4-4.5,1.2-6.5c0.8-2,2-3.8,3.4-5.3c1.5-1.5,3.2-2.7,5.2-3.6c2-0.9,4.2-1.3,6.6-1.3c2.4,0,4.6,0.4,6.6,1.2
			c2,0.8,3.8,1.9,5.2,3.3c1.5,1.4,2.6,3,3.4,4.9c0.8,1.9,1.2,3.9,1.2,6c0,2.4-0.4,4.6-1.2,6.7c-0.8,2.1-2,3.9-3.4,5.5
			c-1.5,1.5-3.2,2.8-5.2,3.7C64,51.5,61.8,51.9,59.5,51.9z M60.6,49.6c1.2,0,2.4-0.3,3.4-0.9s1.9-1.5,2.6-2.5
			c0.7-1.1,1.3-2.3,1.7-3.7C68.8,41,69,39.6,69,38c0-2.3-0.2-4.4-0.6-6.4c-0.4-2-1-3.7-1.9-5.2c-0.9-1.5-2-2.6-3.4-3.5
			c-1.4-0.8-3.1-1.3-5.1-1.3c-1,0-2.1,0.3-3,0.9c-1,0.6-1.8,1.4-2.6,2.5c-0.8,1-1.4,2.3-1.8,3.7c-0.4,1.4-0.7,2.9-0.7,4.4
			c0,2.3,0.2,4.4,0.7,6.4c0.5,2,1.2,3.7,2.1,5.2c0.9,1.5,2.1,2.6,3.4,3.5C57.4,49.2,58.9,49.6,60.6,49.6z"/>
		<path class="st1" d="M81.9,5.8l4.4-1.7h1.8v21.8c0.5-0.9,1.2-1.7,2-2.5c0.8-0.8,1.7-1.5,2.7-2.1c1-0.6,2-1.1,3-1.4
			c1-0.3,2.1-0.5,3-0.5c1.8,0,3.5,0.4,5,1.1c1.5,0.7,2.8,1.7,4,3c1.1,1.3,2,2.7,2.6,4.4c0.6,1.7,0.9,3.5,0.9,5.4
			c0,2.6-0.5,5-1.4,7.2c-0.9,2.3-2.2,4.2-3.7,5.9c-1.6,1.7-3.4,3-5.5,4s-4.4,1.5-6.8,1.5c-2.3,0-4.5-0.3-6.5-0.9
			c-2.1-0.6-3.9-1.5-5.4-2.8V5.8z M88.1,46.1c0.4,0.4,0.8,0.8,1.3,1.2c0.5,0.4,1,0.7,1.6,1c0.6,0.3,1.2,0.6,1.9,0.8s1.5,0.3,2.3,0.3
			c1.4,0,2.7-0.4,3.9-1.1c1.2-0.7,2.2-1.7,3-2.9c0.8-1.2,1.5-2.7,2-4.4s0.7-3.6,0.7-5.6c0-1.5-0.2-3-0.7-4.4
			c-0.5-1.4-1.1-2.5-1.9-3.5c-0.8-1-1.8-1.8-2.9-2.4c-1.1-0.6-2.3-0.9-3.6-0.9c-0.7,0-1.4,0.1-2.2,0.3c-0.7,0.2-1.4,0.5-2.1,0.8
			s-1.3,0.7-1.9,1.2c-0.6,0.5-1.1,1-1.4,1.5V46.1z"/>
		<path class="st1" d="M117.1,5.8l4.4-1.7h1.8v21.8c0.5-0.9,1.2-1.7,2-2.5c0.8-0.8,1.7-1.5,2.7-2.1c1-0.6,2-1.1,3-1.4
			c1-0.3,2.1-0.5,3-0.5c1.8,0,3.5,0.4,5,1.1c1.5,0.7,2.8,1.7,4,3c1.1,1.3,2,2.7,2.6,4.4c0.6,1.7,0.9,3.5,0.9,5.4
			c0,2.6-0.5,5-1.4,7.2c-0.9,2.3-2.2,4.2-3.7,5.9c-1.6,1.7-3.4,3-5.5,4s-4.4,1.5-6.8,1.5c-2.3,0-4.5-0.3-6.5-0.9
			c-2.1-0.6-3.9-1.5-5.4-2.8V5.8z M123.2,46.1c0.4,0.4,0.8,0.8,1.3,1.2c0.5,0.4,1,0.7,1.6,1c0.6,0.3,1.2,0.6,1.9,0.8
			c0.7,0.2,1.5,0.3,2.3,0.3c1.4,0,2.7-0.4,3.9-1.1c1.2-0.7,2.2-1.7,3-2.9c0.8-1.2,1.5-2.7,2-4.4s0.7-3.6,0.7-5.6
			c0-1.5-0.2-3-0.7-4.4c-0.5-1.4-1.1-2.5-1.9-3.5c-0.8-1-1.8-1.8-2.9-2.4c-1.1-0.6-2.3-0.9-3.6-0.9c-0.7,0-1.4,0.1-2.2,0.3
			c-0.7,0.2-1.4,0.5-2.1,0.8s-1.3,0.7-1.9,1.2c-0.6,0.5-1.1,1-1.4,1.5V46.1z"/>
		<path class="st1" d="M158.7,51.2h-6.2V5.8l4.4-1.7h1.8V51.2z"/>
		<path class="st1" d="M166.6,21.2l4.3-1.8h1.8v31.9h-6.2V21.2z"/>
	</g>
</g>
<g>
	<g>
		<path class="st2" d="M152.2,176.3c-2.2-0.7-3.8-1.2-4.8-2.3c-1.1-1.1-1.6-2.7-1.7-5.6c0-0.3,0-0.9,0.1-1.6
			c0.3-5.5,1.5-21.6-0.6-27.8c-0.2,0.2-0.3,0.4-0.5,0.6c-0.5,0.6-1.1,1.2-1.9,1.7c-0.3,0.2-2.2-0.2-2.5-0.2c-0.2,2.2,0.2,6,0,8.1
			c-1,8.7,0.7,15.5,2.9,23.7c0.7,2.5,0.9,5,2.5,7c2,2.5,5.9,4,8.8,5c0.9-1,1.7-3.5,2.4-4.5c0.3-0.4,0.6-0.8,0.9-1.2
			C155.6,177.8,153.3,176.7,152.2,176.3z"/>
		<linearGradient id="SVGID_1_" gradientUnits="userSpaceOnUse" x1="84.1612" y1="104.456" x2="-0.1814" y2="85.9912">
			<stop  offset="0.4527" style="stop-color:#7D8F96"/>
			<stop  offset="0.4611" style="stop-color:#7E9097"/>
			<stop  offset="0.6518" style="stop-color:#94A5AC"/>
			<stop  offset="0.8346" style="stop-color:#A1B2B9"/>
			<stop  offset="1" style="stop-color:#A6B6BD"/>
		</linearGradient>
		<path class="st3" d="M70,150c0.2-0.1,0.4-0.1,0.5-0.2c-35.3,0.7-32.2-20.1-30-30.6c4.1-19.8,49.8-37.4,62.2-40.9
			c16.9-4.8,56.4-11.4,62.8,11.5c-0.8-7.2-5-18.3-22.3-27c-21.1-5.2-48.1-2.2-62.6,0.8C60.8,67.6,32.1,78.3,17.1,97l0,0
			C-2.2,145.9,50.8,157.1,70,150z"/>
		<linearGradient id="SVGID_2_" gradientUnits="userSpaceOnUse" x1="99.9053" y1="192.6694" x2="135.3388" y2="176.5596">
			<stop  offset="0.1907" style="stop-color:#003037"/>
			<stop  offset="0.589" style="stop-color:#1F444B"/>
		</linearGradient>
		<path class="st4" d="M115.3,161.9c-0.6,0.9-0.3,4-1,5c-4,6.1-9.6,5.9-18.3,14.8c0.5,7.1,6.2,17.3,11.6,22.9
			c9.8,0.4,19.7-0.6,26.9-3.9C138.9,188.2,131.7,155.9,115.3,161.9z"/>
		<path class="st5" d="M146.6,178.9c-1.7-2-1.9-4.5-2.5-7c-2.2-8.2-4-14.9-2.9-23.7c0.3-2.1,0.4-4.4,0.7-6.6
			c-2.1,0-6.1-2.2-16.8,10.5c-2.5,3-5.5,6.9-8.8,11.9c16.4-6,21.2,23.2,16.8,35.8c5.2-2.3,9.7-5.3,13.5-8.5c3.1-2.6,5.7-5.2,7.9-7.8
			C151.5,182.5,148.6,181.3,146.6,178.9z"/>
		<path class="st2" d="M96,181.7c-2.4,2.4-4.9,5.5-7.8,9.6c0,0,0,0,0,0.1c0,2.9,0.4,6.9,2.5,9.5c0.4,0.5,0.8,0.9,1.3,1.3
			c5.5,1.5,10.7,2.2,15.5,2.4C102.2,199,96.5,188.8,96,181.7z"/>
		<path class="st6" d="M142.6,136.5c0,0.1,0,0.2-0.1,0.4c0.3-0.1,0.6-0.2,0.8-0.3C143.1,136.5,142.9,136.5,142.6,136.5z"/>
		<g>
			<linearGradient id="SVGID_3_" gradientUnits="userSpaceOnUse" x1="161.4329" y1="63.9669" x2="155.2699" y2="89.5471">
				<stop  offset="8.157809e-02" style="stop-color:#E2EAED"/>
				<stop  offset="1" style="stop-color:#C5D5DC"/>
			</linearGradient>
			<path class="st7" d="M165.6,89.7c0.6,2.3,1,4.9,0.9,7.8c-0.5,17.1-4.3,11.8-11.5,9.9c-0.4-0.3-0.7-0.6-1.1-1.1
				c-0.6-0.6-1.6-2.2-3.2-2.6c-2.1-0.2-3.3,0.1-4.3,0.7c-0.9,0.5-1.4,1.3-1.5,2.1c-0.1,0.8,0.2,1.7,1,2.5c0.8,0.7,2.6,1.7,4.1,1.5
				c1.5-0.1,2.1-2.2,3.5-1.9c3.3,2.3,5.9,6,10.2,4.7c8.2-2.4,9.4-24.4,7.3-29.9c-4.3-11.2-14.9-17.5-27.7-20.6
				C160.6,71.5,164.8,82.5,165.6,89.7z"/>
			<linearGradient id="SVGID_4_" gradientUnits="userSpaceOnUse" x1="147.971" y1="106.4153" x2="147.4645" y2="108.5174">
				<stop  offset="8.157809e-02" style="stop-color:#E2EAED"/>
				<stop  offset="1" style="stop-color:#C5D5DC"/>
			</linearGradient>
			<path class="st8" d="M147.9,108.7c-1,0-1.9-0.8-1.9-1.9c0-1,0.8-1.9,1.9-1.9c1,0,1.8,0.8,1.9,1.8c0,0,0,0,0,0c0,0,0,0.1,0,0.1
				C149.6,108,148.8,108.7,147.9,108.7z"/>
		</g>
		<g>
			<linearGradient id="SVGID_5_" gradientUnits="userSpaceOnUse" x1="92.951" y1="135.1247" x2="78.8947" y2="187.818">
				<stop  offset="8.157809e-02" style="stop-color:#E2EAED"/>
				<stop  offset="1" style="stop-color:#C5D5DC"/>
			</linearGradient>
			<path class="st9" d="M163.4,169.8c-0.3,1-2.1,4.7-5.6,9.3c-0.3,0.4-0.6,0.8-0.9,1.2c-0.7,1-1.6,2-2.4,3c-2.2,2.6-4.9,5.2-7.9,7.8
				c-3.8,3.2-8.3,6.2-13.5,8.5c-7.1,3.2-15.6,5.2-25.4,4.9c-4.8-0.2-10-0.9-15.5-2.4c-0.5-0.4-0.9-0.8-1.3-1.3
				c-2.1-2.6-2.5-6.5-2.5-9.5c0,0,0,0,0-0.1c2.8-4.1,5.4-7.2,7.8-9.6c8.6-8.9,14.3-8.7,18.3-14.8c0.7-1,1.3-2,2-3
				c3.4-5,6.3-8.9,8.8-11.9c10.6-12.7,14.7-10.5,16.8-10.5c0.3,0,0.6,0,0.9-0.2c0.8-0.6,1.4-1.1,1.9-1.7c0.2-0.2,0.3-0.4,0.5-0.6
				c2.1-2.7,1.9-5.8,0.8-9.3c-6.4-3.7-8-5.7-19.3-5.3c-19.4,0.6-42.8,20.3-56,25.4c-0.2,0.1-0.4,0.1-0.5,0.2
				c-19.2,7.1-72.2-4.1-52.9-53l0,0c-28.7,26.5-20,95.2,62.8,98.2c-4.7,10.2,7.2,13.6,13.4,15.6c6.2,2,25.5,7.3,46.4-0.8
				c20.9-8.2,20.3,3.6,24,2c3.7-1.6,2-3.1,2.6-6.2c0.6-3,1.9-33.9,0.3-35.2C165.1,169.3,163.7,168.9,163.4,169.8z"/>
			<linearGradient id="SVGID_6_" gradientUnits="userSpaceOnUse" x1="131.6286" y1="134.0313" x2="131.1221" y2="136.1334">
				<stop  offset="8.157809e-02" style="stop-color:#E2EAED"/>
				<stop  offset="1" style="stop-color:#C5D5DC"/>
			</linearGradient>
			<path class="st10" d="M131.5,132.6c1,0,1.9,0.8,1.9,1.9s-0.8,1.9-1.9,1.9s-1.9-0.8-1.9-1.9S130.5,132.6,131.5,132.6z"/>
		</g>
	</g>
	<circle class="st0" cx="147.9" cy="106.8" r="3.5"/>
	<circle class="st0" cx="131.6" cy="134.5" r="3.5"/>
</g>
</svg>
